<?xml version="1.0" encoding="utf-8"?>
<!-- Generator: Adobe Illustrator 16.0.0, SVG Export Plug-In . SVG Version: 6.00 Build 0)  -->
<!DOCTYPE svg PUBLIC "-//W3C//DTD SVG 1.1//EN" "http://www.w3.org/Graphics/SVG/1.1/DTD/svg11.dtd">
<svg version="1.1" id="Слой_1" xmlns:sketch="http://www.bohemiancoding.com/sketch/ns"
	 xmlns="http://www.w3.org/2000/svg" xmlns:xlink="http://www.w3.org/1999/xlink" x="0px" y="0px" width="25.611px"
	 height="31.75px" viewBox="-10.986 -17.75 25.611 31.75" enable-background="new -10.986 -17.75 25.611 31.75"
	 xml:space="preserve">
<title>Dropdown</title>
<desc>Created with Sketch.</desc>
<path fill-rule="evenodd" clip-rule="evenodd" fill="#FFFFFF" d="M-0.851,5.909c-0.365-0.144-0.653-0.358-0.736-0.766
	C-1.605,5.06-1.612,4.972-1.612,4.885c-0.001-6.146,0-12.291-0.002-18.437c0-0.534,0.293-0.841,0.763-1.023c3.118,0,6.24,0,9.361,0
	c0.363,0.143,0.652,0.357,0.734,0.767c0.02,0.104,0.025,0.211,0.025,0.317c0,6.119,0,12.237,0.002,18.356
	c0,0.543-0.287,0.858-0.762,1.044C5.389,5.909,2.267,5.909-0.851,5.909z M-0.964,3.334c3.205,0,6.392,0,9.578,0
	c0-5.337,0-10.659,0-15.979c-3.199,0-6.384,0-9.578,0C-0.964-7.316-0.964-1.998-0.964,3.334z M3.188,4.625
	C3.186,4.98,3.48,5.273,3.834,5.27C4.18,5.267,4.465,4.98,4.468,4.632S4.19,3.995,3.842,3.99C3.483,3.984,3.192,4.266,3.188,4.625z"
	/>
</svg>
