<?xml version="1.0" encoding="utf-8"?>
<!-- Generator: Adobe Illustrator 16.0.0, SVG Export Plug-In . SVG Version: 6.00 Build 0)  -->
<!DOCTYPE svg PUBLIC "-//W3C//DTD SVG 1.1//EN" "http://www.w3.org/Graphics/SVG/1.1/DTD/svg11.dtd">
<svg version="1.1" id="Слой_1" xmlns:sketch="http://www.bohemiancoding.com/sketch/ns"
	 xmlns="http://www.w3.org/2000/svg" xmlns:xlink="http://www.w3.org/1999/xlink" x="0px" y="0px" width="25.611px"
	 height="23.672px" viewBox="-10.986 -9.672 25.611 23.672" enable-background="new -10.986 -9.672 25.611 23.672"
	 xml:space="preserve">
<title>Dropdown</title>
<desc>Created with Sketch.</desc>
<g>
	<path fill-rule="evenodd" clip-rule="evenodd" fill="#FFFFFF" d="M-8.43,2.083c0-2.723,0.046-5.447-0.018-8.17
		c-0.033-1.418,0.463-2.045,1.942-2.021c3.63,0.057,7.261,0.057,10.889,0C5.868-8.132,6.337-7.5,6.325-6.083
		c-0.047,5.498-0.047,10.998,0,16.497c0.012,1.418-0.465,2.047-1.943,2.023c-3.629-0.057-7.261-0.057-10.89,0
		c-1.482,0.023-1.973-0.609-1.939-2.027C-8.385,7.635-8.43,4.857-8.43,2.083z M4.987-6.687c-4.126,0-8.089,0-12.042,0
		c0,5.984,0,11.832,0,17.702c4.07,0,8.033,0,12.042,0C4.987,5.066,4.987-0.742,4.987-6.687z"/>
	<path fill-rule="evenodd" clip-rule="evenodd" fill="#FFFFFF" d="M7.696,3.941c0-1.167,0-2.314,0-3.568
		c0.371-0.043,0.725-0.137,1.07-0.117c1.381,0.084,2.098-0.443,2.08-1.924c-0.004-0.396,0.426-0.799,0.658-1.197
		c0.189,0.385,0.537,0.77,0.545,1.158c0.051,2.602,0.051,5.207-0.004,7.808c-0.008,0.369-0.396,0.73-0.609,1.094
		c-0.199-0.211-0.484-0.389-0.582-0.639c-0.291-0.746-0.293-1.764-0.811-2.219C9.556,3.908,8.558,4.059,7.696,3.941z"/>
</g>
</svg>
