<?xml version="1.0" encoding="utf-8"?>
<!-- Generator: Adobe Illustrator 16.0.0, SVG Export Plug-In . SVG Version: 6.00 Build 0)  -->
<!DOCTYPE svg PUBLIC "-//W3C//DTD SVG 1.1//EN" "http://www.w3.org/Graphics/SVG/1.1/DTD/svg11.dtd">
<svg version="1.1" id="Слой_1" xmlns:sketch="http://www.bohemiancoding.com/sketch/ns"
	 xmlns="http://www.w3.org/2000/svg" xmlns:xlink="http://www.w3.org/1999/xlink" x="0px" y="0px" width="25.611px"
	 height="23.672px" viewBox="-10.986 -9.672 25.611 23.672" enable-background="new -10.986 -9.672 25.611 23.672"
	 xml:space="preserve">
<title>Dropdown</title>
<desc>Created with Sketch.</desc>
<g>
	<g>
		<path fill-rule="evenodd" clip-rule="evenodd" fill="#FFFFFF" d="M1.278,5.875c-2.817,0-5.636-0.001-8.453,0.005
			c-0.178,0-0.234-0.042-0.233-0.229c0.006-3.294,0.004-6.587,0.004-9.881c0-0.039,0-0.079,0-0.118
			c0.007-0.451,0.24-0.682,0.69-0.682c2.308-0.001,4.616-0.001,6.924-0.001c3.003,0,6.006,0,9.008,0.001
			c0.518,0,0.733,0.219,0.733,0.736c0.001,3.306-0.001,6.614,0.006,9.92c0,0.196-0.039,0.256-0.248,0.256
			C6.899,5.872,4.088,5.875,1.278,5.875z M9.177-4.256c-5.274,0-10.539,0-15.796,0c0,3.179,0,6.342,0,9.5c5.276,0,10.538,0,15.796,0
			C9.177,2.066,9.177-1.092,9.177-4.256z"/>
		<path fill-rule="evenodd" clip-rule="evenodd" fill="#FFFFFF" d="M1.28,8.078c-3.221,0-6.442,0-9.662,0
			c-0.392,0-0.45-0.073-0.471-0.458c-0.012-0.228,0.069-0.364,0.252-0.488c0.365-0.25,0.712-0.525,1.074-0.781
			c0.08-0.056,0.19-0.095,0.287-0.095C-1.559,6.25,4.122,6.25,9.803,6.255c0.09,0,0.194,0.039,0.268,0.092
			c0.397,0.283,0.791,0.576,1.183,0.867c0.14,0.102,0.205,0.437,0.129,0.654c-0.067,0.192-0.225,0.212-0.402,0.212
			C7.746,8.078,4.512,8.078,1.28,8.078z M1.275,7.32c-0.424,0-0.846,0.001-1.27-0.002C-0.103,7.317-0.172,7.334-0.17,7.466
			c0,0.12,0.046,0.164,0.165,0.164C0.847,7.627,1.7,7.627,2.553,7.628C2.67,7.63,2.719,7.589,2.719,7.466
			c0.001-0.131-0.066-0.148-0.174-0.147C2.122,7.321,1.698,7.32,1.275,7.32z"/>
	</g>
</g>
</svg>
