<?xml version="1.0" encoding="utf-8"?>
<!-- Generator: Adobe Illustrator 16.0.0, SVG Export Plug-In . SVG Version: 6.00 Build 0)  -->
<!DOCTYPE svg PUBLIC "-//W3C//DTD SVG 1.1//EN" "http://www.w3.org/Graphics/SVG/1.1/DTD/svg11.dtd">
<svg version="1.1" id="Слой_1" xmlns:sketch="http://www.bohemiancoding.com/sketch/ns"
	 xmlns="http://www.w3.org/2000/svg" xmlns:xlink="http://www.w3.org/1999/xlink" x="0px" y="0px" width="25.611px"
	 height="31.75px" viewBox="-10.986 -17.75 25.611 31.75" enable-background="new -10.986 -17.75 25.611 31.75"
	 xml:space="preserve">
<title>Dropdown</title>
<desc>Created with Sketch.</desc>
<g>
	<path fill-rule="evenodd" clip-rule="evenodd" fill="#FFFFFF" d="M-6.295,12.799c-0.632-0.172-1.132-0.434-1.277-0.926
		c-0.03-0.102-0.04-0.209-0.04-0.313c-0.004-7.43,0-14.856-0.005-22.286c0-0.648,0.511-1.018,1.322-1.236c5.409,0,10.82,0,16.228,0
		c0.635,0.172,1.133,0.432,1.275,0.926c0.037,0.125,0.043,0.256,0.043,0.385c0.002,7.395,0,14.792,0.006,22.188
		c0,0.656-0.496,1.035-1.324,1.262C4.524,12.799-0.886,12.799-6.295,12.799z M-6.491,9.586c5.556,0,11.085,0,16.607,0
		c0-6.659,0-13.295,0-19.932c-5.549,0-11.072,0-16.607,0C-6.491-3.7-6.491,2.933-6.491,9.586z M1.046,11.262
		c-0.002,0.428,0.353,0.785,0.78,0.779c0.416-0.004,0.76-0.352,0.767-0.768c0-0.422-0.337-0.77-0.759-0.775
		C1.401,10.488,1.048,10.83,1.046,11.262z"/>
</g>
</svg>
