<?xml version="1.0" encoding="utf-8"?>
<!-- Generator: Adobe Illustrator 16.0.0, SVG Export Plug-In . SVG Version: 6.00 Build 0)  -->
<!DOCTYPE svg PUBLIC "-//W3C//DTD SVG 1.1//EN" "http://www.w3.org/Graphics/SVG/1.1/DTD/svg11.dtd">
<svg version="1.1" id="Слой_1" xmlns:sketch="http://www.bohemiancoding.com/sketch/ns"
	 xmlns="http://www.w3.org/2000/svg" xmlns:xlink="http://www.w3.org/1999/xlink" x="0px" y="0px" width="25.611px"
	 height="31.75px" viewBox="-10.986 -17.75 25.611 31.75" enable-background="new -10.986 -17.75 25.611 31.75"
	 xml:space="preserve">
<title>Dropdown</title>
<desc>Created with Sketch.</desc>
<g>
	<path fill-rule="evenodd" clip-rule="evenodd" fill="#FFFFFF" d="M-3.525,5.865c-0.52-0.142-0.932-0.356-1.052-0.763
		C-4.601,5.019-4.61,4.931-4.61,4.846c-0.003-6.12,0-12.236-0.004-18.356c0-0.535,0.421-0.839,1.089-1.02c4.455,0,8.914,0,13.367,0
		c0.523,0.142,0.934,0.356,1.053,0.763c0.029,0.104,0.033,0.212,0.033,0.317c0.004,6.091,0,12.184,0.006,18.276
		c0,0.541-0.408,0.853-1.092,1.039C5.389,5.865,0.93,5.865-3.525,5.865z M-3.632,3.877c12.851,0,1.547,0,13.679,0
		c0-3.58,0-9.046,0-16.418c-7.875,0-6.111,0-13.679,0C-3.632-3.978-3.632,1.486-3.632,3.877z"/>
</g>
</svg>
