<?xml version="1.0" encoding="utf-8"?>
<!-- Generator: Adobe Illustrator 16.0.0, SVG Export Plug-In . SVG Version: 6.00 Build 0)  -->
<!DOCTYPE svg PUBLIC "-//W3C//DTD SVG 1.1//EN" "http://www.w3.org/Graphics/SVG/1.1/DTD/svg11.dtd">
<svg version="1.1" id="Слой_1" xmlns:sketch="http://www.bohemiancoding.com/sketch/ns"
	 xmlns="http://www.w3.org/2000/svg" xmlns:xlink="http://www.w3.org/1999/xlink" x="0px" y="0px" width="17.261px"
	 height="14.756px" viewBox="-10.986 -9.672 17.261 14.756" enable-background="new -10.986 -9.672 17.261 14.756"
	 xml:space="preserve">
<title>Dropdown</title>
<desc>Created with Sketch.</desc>
<g>
	<path fill-rule="evenodd" clip-rule="evenodd" fill="#232D38" d="M-2.357,2.987c-0.998,0-1.996,0-2.994,0
		c-0.426,0-0.826-0.092-1.178-0.345c-0.509-0.365-0.674-0.895-0.67-1.484c0.004-0.692,0.066-1.381,0.274-2.046
		c0.207-0.666,0.5-1.28,1.159-1.618c0.192-0.098,0.41-0.153,0.623-0.204c0.239-0.057,0.458,0,0.664,0.148
		c0.421,0.306,0.872,0.558,1.384,0.686c0.874,0.22,1.679,0.043,2.44-0.407c0.121-0.072,0.249-0.14,0.354-0.231
		c0.322-0.279,0.675-0.24,1.042-0.128C1.455-2.424,1.84-1.886,2.096-1.236C2.412-0.435,2.519,0.409,2.48,1.26
		c-0.05,1.117-0.724,1.724-1.844,1.727C-0.361,2.989-1.359,2.987-2.357,2.987z"/>
	<path fill-rule="evenodd" clip-rule="evenodd" fill="#232D38" d="M-2.361-2.295C-3.823-2.3-5-3.479-4.994-4.932
		c0.006-1.478,1.179-2.649,2.648-2.645c1.479,0.004,2.639,1.187,2.633,2.684C0.282-3.464-0.915-2.291-2.361-2.295z"/>
</g>
</svg>
