<?xml version="1.0" encoding="utf-8"?>
<!-- Generator: Adobe Illustrator 16.0.0, SVG Export Plug-In . SVG Version: 6.00 Build 0)  -->
<!DOCTYPE svg PUBLIC "-//W3C//DTD SVG 1.1//EN" "http://www.w3.org/Graphics/SVG/1.1/DTD/svg11.dtd">
<svg version="1.1" id="Слой_1" xmlns:sketch="http://www.bohemiancoding.com/sketch/ns"
	 xmlns="http://www.w3.org/2000/svg" xmlns:xlink="http://www.w3.org/1999/xlink" x="0px" y="0px" width="17.261px"
	 height="14.756px" viewBox="-10.986 -9.672 17.261 14.756" enable-background="new -10.986 -9.672 17.261 14.756"
	 xml:space="preserve">
<title>Dropdown</title>
<desc>Created with Sketch.</desc>
<g>
	<path fill-rule="evenodd" clip-rule="evenodd" fill="#58595B" d="M2.318,0.667C1.832,0.328,1.381,0.016,0.856-0.349
		c1.289-0.563,2.511-1.097,3.747-1.636c0,1.385,0,2.717,0,4.182C4.101,1.87,3.708,1.615,3.276,1.334
		C1.371,3.867-1.122,4.955-4.255,4.133c-1.975-0.518-3.379-1.794-4.281-3.66c0.302-0.24,0.573-0.458,0.878-0.701
		c1.184,2.375,3.046,3.652,5.713,3.477C-0.129,3.129,1.277,2.217,2.318,0.667z"/>
	<path fill-rule="evenodd" clip-rule="evenodd" fill="#58595B" d="M-6.992-5.235C-6.525-4.91-6.09-4.607-5.566-4.243
		C-6.879-3.67-8.114-3.131-9.314-2.605c0-1.372,0-2.709,0-4.192c0.525,0.347,0.917,0.604,1.334,0.877
		c1.755-2.374,4.073-3.485,7.019-2.929c2.206,0.418,3.772,1.74,4.789,3.766C3.667-4.944,3.533-4.82,3.391-4.707
		C3.25-4.595,3.102-4.493,2.953-4.384C0.835-8.997-4.931-8.74-6.992-5.235z"/>
</g>
</svg>
