<?xml version="1.0" encoding="utf-8"?>
<!-- Generator: Adobe Illustrator 16.0.0, SVG Export Plug-In . SVG Version: 6.00 Build 0)  -->
<!DOCTYPE svg PUBLIC "-//W3C//DTD SVG 1.1//EN" "http://www.w3.org/Graphics/SVG/1.1/DTD/svg11.dtd">
<svg version="1.1" id="Слой_1" xmlns:sketch="http://www.bohemiancoding.com/sketch/ns"
	 xmlns="http://www.w3.org/2000/svg" xmlns:xlink="http://www.w3.org/1999/xlink" x="0px" y="0px" width="25.611px"
	 height="23.672px" viewBox="-10.986 -9.672 25.611 23.672" enable-background="new -10.986 -9.672 25.611 23.672"
	 xml:space="preserve">
<title>Dropdown</title>
<desc>Created with Sketch.</desc>
<g id="Page-1_5_" sketch:type="MSPage">
	<g id="Top-Bar_5_" transform="translate(-2131.000000, -540.000000)" sketch:type="MSArtboardGroup">
		<path id="Notifications_3_" sketch:type="MSShapeGroup" fill="#FFFFFF" d="M2127.41,543.785v-4.167c0-3.031,2.466-5.5,5.508-5.5
			h0.983c3.052,0,5.509,2.459,5.509,5.491c0,0,0,0.992,0,4.175c0.609,0.551,1,1.395,1,2.334h-2.01h-9.982h-2.009
			C2126.41,545.18,2126.801,544.336,2127.41,543.785z M2130.41,547.119l1.012,1.084c0,0,1.322,0.916,1.992,0.916
			c0.629,0,2.016-0.982,2.016-0.982l0.98-1.018H2130.41z"/>
	</g>
</g>
</svg>
